<?xml version="1.0" encoding="UTF-8"?>
<svg width="600px" height="600px" viewBox="0 0 600 600" version="1.1" xmlns="http://www.w3.org/2000/svg" xmlns:xlink="http://www.w3.org/1999/xlink">
    <title>FCC-Logo-BulbBlackBG</title>
    <defs>
        <radialGradient cx="50%" cy="32.5045962%" fx="50%" fy="32.5045962%" r="106.540623%" gradientTransform="translate(0.500000,0.325046),scale(1.000000,0.631474),rotate(75.193898),translate(-0.500000,-0.325046)" id="radialGradient-1">
            <stop stop-color="#BA4E00" offset="0%"></stop>
            <stop stop-color="#732AA3" offset="100%"></stop>
        </radialGradient>
    </defs>
    <g id="FCC-Logo-BulbBlackBG" stroke="none" stroke-width="1" fill="none" fill-rule="evenodd">
        <rect fill="#ffffff" x="0" y="0" width="600" height="600"></rect>
        <path d="M355.945591,491.320411 C355.942633,492.606661 355.941176,493.907179 355.941176,495.222222 C355.941176,523.111111 333.9155,551 300,551 C276.345391,551 258.474545,537.433547 249.826311,519.762661 L259.845336,517.078006 C266.47238,530.877859 279.475422,540.479042 299.889271,540.479042 C330.388594,540.479042 344.345608,519.047406 345.211407,494.201518 L355.945591,491.320411 Z M366.339505,471.285588 L367.250796,474.686573 C367.751092,476.553704 366.643054,478.472883 364.775922,478.97318 L237.973576,512.949766 C236.106444,513.450062 234.187265,512.342024 233.686968,510.474892 L232.775677,507.073908 C232.275381,505.206777 233.38342,503.287597 235.250551,502.787301 L362.052898,468.810714 C363.920029,468.310418 365.839209,469.418457 366.339505,471.285588 Z M366.339505,450.243672 L367.250796,453.644656 C367.751092,455.511788 366.643054,457.430967 364.775922,457.931263 L237.973576,491.90785 C236.106444,492.408146 234.187265,491.300107 233.686968,489.432976 L232.775677,486.031992 C232.275381,484.16486 233.38342,482.245681 235.250551,481.745385 L362.052898,447.768798 C363.920029,447.268502 365.839209,448.376541 366.339505,450.243672 Z M366.339505,429.201756 L367.250796,432.60274 C367.751092,434.469872 366.643054,436.389051 364.775922,436.889347 L237.973576,470.865934 C236.106444,471.36623 234.187265,470.258191 233.686968,468.39106 L232.775677,464.990076 C232.275381,463.122944 233.38342,461.203765 235.250551,460.703469 L362.052898,426.726882 C363.920029,426.226586 365.839209,427.334625 366.339505,429.201756 Z M366.339505,408.15984 L367.250796,411.560824 C367.751092,413.427955 366.643054,415.347135 364.775922,415.847431 L237.973576,449.824017 C236.106444,450.324314 234.187265,449.216275 233.686968,447.349144 L232.775677,443.948159 C232.275381,442.081028 233.38342,440.161849 235.250551,439.661552 L362.052898,405.684966 C363.920029,405.18467 365.839209,406.292708 366.339505,408.15984 Z M300,49 C387.537133,49 458.5,119.755592 458.5,207.037037 C458.5,246.224723 443.589711,280.824255 420.507691,309.697886 C390.027347,347.826187 373.277319,365.010053 364.530875,394.609907 L353.330544,397.610568 C362.365809,362.35563 380.090032,340.710134 411.857995,303.289654 C433.762048,277.488182 447.759331,242.573844 447.759331,206.20204 C447.759331,125.192316 381.223673,59.5209581 299.889271,59.5209581 C218.55487,59.5209581 152.019212,125.192316 152.019212,206.20204 C152.019212,242.583424 165.750239,278.093629 187.937941,303.309905 C228.582786,349.502686 245.683544,371.339489 251.717176,424.8429 L241.853195,427.484229 C236.757858,373.486296 221.235914,359.97151 179.511027,309.719706 C156.090068,281.512428 141.5,246.235044 141.5,207.037037 C141.5,119.755592 212.462867,49 300,49 Z M329.942029,175 C331.640097,175 333.15942,175.553238 334.5,176.383095 L334.5,176.383095 L310.458937,252.545554 C309.297101,256.326015 305.990338,259 302.057971,259 C300.359903,259 298.84058,258.446762 297.5,257.616905 L297.5,257.616905 L321.541063,181.454446 C322.702899,177.673985 326.009662,175 329.942029,175 Z M296.942029,175 C298.550725,175 300.15942,175.553238 301.5,176.383095 L301.5,176.383095 L277.458937,252.545554 C276.297101,256.326015 272.990338,259 269.057971,259 C267.359903,259 265.84058,258.446762 264.5,257.616905 L264.5,257.616905 L288.541063,181.454446 C289.702899,177.673985 293.009662,175 296.942029,175 Z M250.454061,177.549191 C252.85415,179.697233 253.025006,182.145262 250.96663,184.893279 L221.775697,216.57034 L250.96663,248.246976 C253.169683,251.136607 252.998826,253.57529 250.454061,255.563023 C247.909297,257.550757 245.4952,257.476304 243.211773,255.339665 L207.5,216.57034 L243.211773,177.806424 C245.639877,175.486894 248.053973,175.40115 250.454061,177.549191 Z M349.545939,177.549191 C351.946027,175.40115 354.360123,175.486894 356.788227,177.806424 L356.788227,177.806424 L392.5,216.57034 L356.788227,255.339665 C354.5048,257.476304 352.090703,257.550757 349.545939,255.563023 C347.001174,253.57529 346.830317,251.136607 349.03337,248.246976 L349.03337,248.246976 L378.224303,216.57034 L349.03337,184.893279 C346.974994,182.145262 347.14585,179.697233 349.545939,177.549191 Z" id="bulb" fill="url(#radialGradient-1)"></path>
    </g>
</svg>